<svg width="212" height="52" viewBox="0 0 212 52" fill="none" xmlns="http://www.w3.org/2000/svg">
<path d="M43.7754 40.8912L25.8203 51.2822C24.1909 52.2393 22.171 52.2393 20.5416 51.2822L2.62426 40.8912C1.01125 39.9529 0.013514 38.2327 0 36.3668V15.615C0.013514 13.7491 1.01125 12.0289 2.62426 11.0906L20.5793 0.707177C22.2125 -0.235726 24.2248 -0.235726 25.858 0.707177L43.7754 11.0755C45.3951 12.0071 46.3953 13.7315 46.3996 15.5999V36.3442C46.3953 38.2126 45.3951 39.937 43.7754 40.8685" fill="#FFC337"/>
<path d="M40.6006 34.0218V17.9678C40.5973 16.7223 39.9306 15.573 38.8511 14.9516L24.9456 6.91325C23.8657 6.28803 22.534 6.28803 21.4541 6.91325L7.54101 14.9365C6.46155 15.5579 5.79489 16.7072 5.7915 17.9527V34.0218C5.79489 35.2673 6.46155 36.4167 7.54101 37.0381L21.4541 45.0764C22.534 45.7016 23.8657 45.7016 24.9456 45.0764L38.8511 37.0456C39.9306 36.4242 40.5973 35.2748 40.6006 34.0293" fill="#191919"/>
<path d="M33.6402 31.0127V20.9761C33.6393 20.3532 33.3058 19.7781 32.7655 19.468L24.0783 14.4459C23.5383 14.1287 22.8688 14.1287 22.3288 14.4459L13.634 19.4605C13.0937 19.7706 12.7602 20.3456 12.7593 20.9686V31.0127C12.7633 31.6348 13.096 32.2084 13.634 32.5208L22.3288 37.5353C22.8709 37.8448 23.5362 37.8448 24.0783 37.5353L32.7655 32.5208C33.3035 32.2084 33.6362 31.6348 33.6402 31.0127Z" fill="#FFC337"/>
<path fill-rule="evenodd" clip-rule="evenodd" d="M206.676 16.5061H205.922L205.876 15.918H208.139V16.5061H207.347V18.6703H206.676V16.5061ZM210.032 17.0943L211.283 15.918H211.442V18.6703H210.778V17.215L210.092 17.8785H209.979L209.285 17.2074V18.6703H208.621V15.918H208.78L210.032 17.0943Z" fill="#191919"/>
<path d="M200.206 35.2902H192.446V32.5002H200.206C201.663 32.5002 202.845 31.3186 202.845 29.861C202.845 28.4034 201.663 27.2218 200.206 27.2218H197.189C194.153 27.2218 191.692 24.7606 191.692 21.7247C191.692 18.6887 194.153 16.2275 197.189 16.2275H203.154V19.0176H197.189C195.694 19.0176 194.482 20.2296 194.482 21.7247C194.482 23.2197 195.694 24.4317 197.189 24.4317H200.206C202.19 24.3577 204.055 25.3739 205.069 27.0807C206.083 28.7875 206.083 30.9119 205.069 32.6187C204.055 34.3255 202.19 35.3416 200.206 35.2676" fill="#191919"/>
<path fill-rule="evenodd" clip-rule="evenodd" d="M65.0185 15.835C58.8952 15.835 55.0493 20.2462 55.0493 25.8037C55.0493 31.2932 58.8651 35.7347 65.0185 35.7347C71.1719 35.7347 75.0178 31.3611 75.0178 25.8037C75.0178 20.2462 71.1418 15.835 65.0185 15.835ZM64.9883 18.8512C69.0831 18.8512 71.7752 21.8675 71.7752 25.8037H71.8054C71.8054 29.672 69.0529 32.6883 65.0185 32.6883C60.9841 32.6883 58.2844 29.7173 58.2844 25.8037C58.2844 21.8901 60.8936 18.8512 64.9883 18.8512Z" fill="#191919"/>
<path d="M95.2953 22.8858L89.2625 29.1671H88.531L82.4681 22.8858V35.2901H79.3311V16.25H80.2133L88.8855 25.1329L97.6104 16.25H98.4399V35.2901H95.2953V22.8858Z" fill="#191919"/>
<path d="M121.161 35.2901H120.339L107.165 22.5313V35.2901H104.021V16.25H104.85L118.017 28.8202V16.25H121.161V35.2901Z" fill="#191919"/>
<rect x="126.749" y="16.25" width="3.14459" height="19.0476" fill="#191919"/>
<path d="M169.054 27.199H159.469V32.5001H170.766V35.2901H156.325V16.25H170.766V19.04H159.469V24.5296H169.054V27.199Z" fill="#191919"/>
<path d="M187.778 27.199H178.193V32.5001H189.497V35.2901H175.049V16.25H189.497V19.04H178.193V24.5296H187.778V27.199Z" fill="#191919"/>
<path fill-rule="evenodd" clip-rule="evenodd" d="M148.55 25.3736V25.6602C150.481 26.1323 151.828 27.8797 151.792 29.8678C151.792 33.4496 148.965 35.2895 144.644 35.2895H135.504V16.2344H144.327C148.708 16.2344 151.189 18.0743 151.189 21.4072C151.251 23.1584 150.189 24.754 148.55 25.3736ZM138.686 32.4844H144.779L144.727 32.4995C146.906 32.4995 148.497 31.4815 148.497 29.6718C148.497 28.0204 147.004 26.9119 145.006 26.9119H142.849C142.257 26.9119 141.778 26.4325 141.778 25.8411V25.4792C141.776 25.1939 141.888 24.9196 142.089 24.7172C142.29 24.5147 142.564 24.4009 142.849 24.4009H144.251C146.536 24.4009 147.901 23.3226 147.901 21.739C147.901 19.9293 146.514 19.0395 144.251 19.0395H138.686V32.4844Z" fill="#191919"/>
</svg>
